<svg width="11" height="14" viewBox="0 0 11 14" fill="none" xmlns="http://www.w3.org/2000/svg">
<path d="M8.68258 10.7495L8.65169 10.6925C8.65169 10.6734 8.65685 10.664 8.66714 10.664C8.67742 10.664 8.68258 10.6545 8.68258 10.6354C9.01218 10.5214 9.31085 10.3693 9.57865 10.1792C9.84645 9.98913 10.0318 9.71352 10.1348 9.35234L10.1503 9.25255C10.1606 9.18602 10.176 9.12424 10.1966 9.06721V1.62525C10.1966 1.43516 10.14 1.24509 10.0267 1.05499C9.91329 0.864892 9.76911 0.693813 9.5941 0.541752C9.419 0.38969 9.22331 0.261381 9.00702 0.156823C8.79073 0.0522648 8.58989 0 8.40449 0H2.6264C2.44101 0 2.24017 0.0475316 2.02388 0.142566C1.80758 0.237601 1.6119 0.361177 1.4368 0.513238C1.26169 0.665299 1.11749 0.836379 1.00421 1.02648C0.890907 1.21657 0.83427 1.39715 0.83427 1.56823V9.12424C0.83427 9.25731 0.865169 9.39035 0.926966 9.52342C0.988764 9.65649 1.07117 9.7848 1.17416 9.90835C1.27714 10.0319 1.39045 10.146 1.51405 10.2505C1.63764 10.3551 1.76124 10.4358 1.88483 10.4929C1.94663 10.5119 2.04449 10.5452 2.17837 10.5927C2.31226 10.6402 2.37921 10.6735 2.37921 10.6925L0 14H1.39045L3.12079 11.6904H7.87921L9.60955 14H11L8.68258 10.7495ZM4.14045 0.655804C4.14045 0.598778 4.16619 0.541752 4.2177 0.484725C4.26921 0.427699 4.32584 0.399185 4.38764 0.399185H6.61236C6.63297 0.399185 6.67416 0.418204 6.73596 0.456212C6.79775 0.49422 6.82865 0.532257 6.82865 0.570265V1.36864C6.82865 1.42566 6.80291 1.47319 6.7514 1.5112C6.6999 1.54921 6.65355 1.56823 6.61236 1.56823H4.38764C4.34645 1.54921 4.31555 1.53022 4.29494 1.5112C4.25376 1.49218 4.22286 1.46367 4.20225 1.42566C4.16106 1.38754 4.14045 1.34953 4.14045 1.31161V0.655804ZM1.91573 2.82281C1.91573 2.72778 1.93634 2.62322 1.97753 2.50916C2.03933 2.41396 2.11141 2.3189 2.19382 2.22403C2.25562 2.14799 2.34315 2.08147 2.45646 2.02444C2.56977 1.96741 2.6882 1.9389 2.8118 1.9389H8.1882C8.27061 1.9389 8.3736 1.96741 8.49719 2.02444C8.5796 2.06245 8.67229 2.11947 8.77528 2.19552C8.85769 2.25255 8.91949 2.32859 8.96067 2.42363C9.02247 2.49967 9.05337 2.5947 9.05337 2.70876V4.39104C9.05337 4.48607 9.02247 4.57637 8.96067 4.66191C8.89888 4.74745 8.82679 4.82823 8.74438 4.90428C8.6414 4.98032 8.53838 5.03735 8.43539 5.07536C8.35299 5.11336 8.25 5.13238 8.1264 5.13238H2.8427C2.82209 5.13238 2.79119 5.12762 2.75 5.11813C2.70881 5.10863 2.67791 5.09437 2.6573 5.07536C2.4513 5.05634 2.27623 4.96606 2.13202 4.80448C1.98782 4.6429 1.91573 4.46708 1.91573 4.27699V2.82281ZM3.50702 9.40937C3.33192 9.58045 3.1105 9.66599 2.8427 9.66599C2.5749 9.66599 2.3586 9.58045 2.19382 9.40937C2.02904 9.23829 1.94663 9.0292 1.94663 8.78208C1.94663 8.55397 2.03417 8.35914 2.20927 8.19756C2.38437 8.03597 2.59551 7.95519 2.8427 7.95519C3.1105 7.95519 3.33195 8.03124 3.50702 8.1833C3.68213 8.33536 3.76966 8.53495 3.76966 8.78208C3.76966 9.0292 3.68213 9.23829 3.50702 9.40937ZM7.46208 9.40937C7.28697 9.23829 7.19944 9.0292 7.19944 8.78208C7.19944 8.53495 7.29213 8.33536 7.47753 8.1833C7.66292 8.03124 7.87921 7.95519 8.1264 7.95519C8.39421 7.95519 8.6105 8.03597 8.77528 8.19756C8.94006 8.35914 9.02247 8.55397 9.02247 8.78208C9.02247 9.0292 8.94006 9.23829 8.77528 9.40937C8.6105 9.58045 8.39421 9.66599 8.1264 9.66599C7.85857 9.66599 7.63712 9.58045 7.46208 9.40937Z" fill="#010002"/>
</svg>
