<svg width="10" height="10" viewBox="0 0 10 10" fill="none" xmlns="http://www.w3.org/2000/svg">
<path d="M2.50465 1.18259e-08C1.12356 1.18259e-08 1.18259e-08 1.12378 1.18259e-08 2.50487C1.18259e-08 3.88596 1.12356 5.00974 2.50465 5.00974C3.88552 5.00974 5.0093 3.88618 5.0093 2.50487C5.0093 1.12356 3.88552 1.18259e-08 2.50465 1.18259e-08Z" transform="translate(2.49536 2.49535)" fill="#000"/>
<path d="M0.488707 1.75908C0.218778 1.75908 -1.79078e-07 1.5403 -1.79078e-07 1.27059V0.488707C-1.79078e-07 0.218778 0.218778 0 0.488707 0C0.758636 0 0.977414 0.218778 0.977414 0.488707V1.27059C0.977414 1.5403 0.758415 1.75908 0.488707 1.75908Z" transform="translate(4.51129)" fill="#000"/>
<path d="M0.488707 3.37883e-08C0.218778 3.37883e-08 -1.79078e-07 0.218778 -1.79078e-07 0.488707V1.27037C-1.79078e-07 1.54052 0.218778 1.7593 0.488707 1.7593C0.758636 1.7593 0.977414 1.54052 0.977414 1.27037V0.488707C0.977414 0.218778 0.758415 3.37883e-08 0.488707 3.37883e-08Z" transform="translate(4.51129 8.2407)" fill="#000"/>
<path d="M0.142992 1.38701C-0.0476636 1.19614 -0.0476636 0.886791 0.142992 0.695914L0.695914 0.142992C0.88657 -0.0476639 1.19614 -0.0476639 1.38701 0.142992C1.57789 0.333868 1.57789 0.643435 1.38701 0.83409L0.83409 1.38701C0.643434 1.57789 0.33409 1.57789 0.142992 1.38701Z" transform="translate(7.14841 1.32136)" fill="#000"/>
<path d="M1.3871 0.143324C1.19622 -0.0477745 0.886874 -0.0477745 0.695997 0.143324L0.143075 0.696025C-0.0475808 0.88668 -0.0478023 1.19647 0.143075 1.38712C0.333951 1.57778 0.643518 1.57778 0.834173 1.38712L1.3871 0.833979C1.57797 0.643324 1.57797 0.333758 1.3871 0.143324Z" transform="translate(1.32129 7.14853)" fill="#000"/>
<path d="M3.37883e-08 0.488707C3.37883e-08 0.218778 0.218778 -1.79078e-07 0.488707 -1.79078e-07H1.27059C1.54052 -1.79078e-07 1.7593 0.218778 1.7593 0.488707C1.7593 0.758636 1.54052 0.977192 1.27059 0.977192H0.488707C0.218778 0.977192 3.37883e-08 0.758636 3.37883e-08 0.488707Z" transform="translate(8.24069 4.51129)" fill="#000"/>
<path d="M1.75908 0.488707C1.75908 0.218778 1.5403 -1.79078e-07 1.27037 -1.79078e-07H0.488707C0.218778 -1.79078e-07 0 0.218778 0 0.488707C0 0.758636 0.218778 0.977192 0.488707 0.977192H1.27059C1.5403 0.977192 1.75908 0.758636 1.75908 0.488707Z" transform="translate(0 4.51129)" fill="#000"/>
<path d="M0.143158 0.142992C0.334035 -0.0476638 0.6436 -0.0476638 0.834256 0.142992L1.38718 0.695914C1.57806 0.886348 1.57806 1.19614 1.38718 1.38679C1.1963 1.57745 0.886957 1.57745 0.69608 1.38679L0.143158 0.833868C-0.0477189 0.642991 -0.0477189 0.333647 0.143158 0.142992Z" transform="translate(7.14825 7.14886)" fill="#000"/>
<path d="M1.38718 1.38696C1.57806 1.19608 1.57806 0.886736 1.38718 0.695859L0.834256 0.143158C0.643379 -0.0477192 0.334035 -0.0477192 0.143158 0.143158C-0.0477192 0.333813 -0.0477192 0.643379 0.143158 0.834035L0.696081 1.38696C0.886957 1.57806 1.1963 1.57806 1.38718 1.38696Z" transform="translate(1.3212 1.32141)" fill="#000"/>
</svg>
