<svg width="9" height="10" viewBox="0 0 9 10" fill="none" xmlns="http://www.w3.org/2000/svg">
<path d="M8.84424 7.08069L7.73235 6.45678L8.67105 5.91389C8.82196 5.84328 8.86866 5.64649 8.78284 5.50181C8.69547 5.35365 8.5069 5.3224 8.36376 5.40341L7.11219 6.1153L5.1231 4.99132L7.11217 3.87893L8.36374 4.58966C8.40283 4.61744 8.45312 4.63364 8.50905 4.63364C8.61512 4.63364 8.71014 4.58503 8.78283 4.49242C8.86663 4.34541 8.82194 4.15095 8.67103 4.08034L7.73233 3.53746L8.84422 2.91355C8.98915 2.83252 9.03899 2.65078 8.95602 2.50146C8.87677 2.35792 8.68068 2.30815 8.53133 2.39265L7.41383 3.02236L7.39714 1.93658C7.39453 1.76873 7.26304 1.63329 7.08985 1.63329C6.91669 1.63329 6.78126 1.77915 6.78257 1.93658L6.79366 3.36961L4.81579 4.48201V2.2248L6.06177 1.5349C6.20722 1.45503 6.2706 1.26866 6.18466 1.12282C6.0974 0.974658 5.91827 0.930659 5.76558 1.01402L4.81579 1.53491V0.30327C4.81579 0.135426 4.67608 0 4.50289 0C4.3297 0 4.1956 0.135426 4.1956 0.30327V1.54647L3.21221 1.014C3.05903 0.931816 2.88465 0.978114 2.79871 1.12281C2.71146 1.27097 2.7657 1.45271 2.91601 1.53488L4.1956 2.23521V4.47043L2.17294 3.33719L2.18414 1.93656C2.20095 1.77915 2.05564 1.63328 1.88245 1.63328H1.87125C1.70925 1.63328 1.56575 1.76872 1.56395 1.93656L1.55275 2.98992L0.463284 2.38221C0.311181 2.29656 0.123447 2.34748 0.0441828 2.48986C-0.0387873 2.64034 0.00412423 2.81745 0.155991 2.90311L1.25666 3.52123L0.295578 4.08033C0.14477 4.15095 0.0976825 4.34773 0.189476 4.49242C0.248593 4.58619 0.334667 4.63364 0.452063 4.63364C0.513445 4.63364 0.564577 4.61859 0.614047 4.58966L1.87123 3.8685L3.88831 4.99132L1.87123 6.12571L0.614047 5.40341C0.463136 5.31776 0.268608 5.35827 0.189461 5.50181C0.106491 5.65113 0.15155 5.83056 0.295549 5.91389L1.25665 6.46719L0.155962 7.0911C0.00446247 7.17676 -0.0446549 7.35734 0.0441534 7.50435C0.106271 7.60622 0.189476 7.656 0.30677 7.656C0.334666 7.656 0.390563 7.63979 0.463284 7.61202L1.55275 7.00431L1.56395 8.05767C1.56575 8.22551 1.70925 8.35515 1.87125 8.35515H1.88245C2.05564 8.35515 2.18545 8.21509 2.18414 8.04608L2.17294 6.64661L4.1956 5.5238V7.74744L2.91601 8.44775C2.76331 8.53109 2.7099 8.71283 2.79871 8.85984C2.86081 8.96286 2.94402 9.01263 3.0613 9.01263C3.11721 9.01263 3.16869 9.00338 3.21221 8.97906L4.1956 8.43731V9.70136C4.1956 9.8692 4.3297 10 4.50289 10C4.67608 10 4.81579 9.8692 4.81579 9.70136V8.45815L5.76558 8.97906C5.80906 9.00336 5.86056 9.01263 5.91089 9.01263C6.03375 9.01263 6.12436 8.96402 6.18466 8.85984C6.26953 8.71399 6.21471 8.53108 6.06177 8.44775L4.81579 7.76943V5.51222L6.79366 6.62462L6.78257 8.04608C6.78113 8.21509 6.91667 8.35515 7.08986 8.35515C7.26305 8.35515 7.39453 8.22551 7.39714 8.05767L7.41383 6.9661L8.53133 7.60159C8.57447 7.6259 8.63192 7.63401 8.69343 7.63401C8.81074 7.63401 8.89678 7.58655 8.956 7.49278C9.04771 7.34809 8.98916 7.16172 8.84424 7.08069Z" fill="black"/>
</svg>
